<svg width="33" height="40" viewBox="0 0 33 40" fill="none" xmlns="http://www.w3.org/2000/svg">
<path d="M0.486977 1.63151C0.524104 1.18016 0.733785 0.760499 1.07241 0.459793C1.41104 0.159086 1.85255 0.000482533 2.30512 0.0169678C2.75769 0.033453 3.18649 0.223758 3.50234 0.548305C3.81819 0.872851 3.99678 1.30666 4.00098 1.75951V10.7475C4.00098 11.079 4.13267 11.397 4.36709 11.6314C4.60151 11.8658 4.91946 11.9975 5.25098 11.9975C5.5825 11.9975 5.90044 11.8658 6.13486 11.6314C6.36928 11.397 6.50098 11.079 6.50098 10.7475V1.49951C6.50098 1.10169 6.65901 0.720156 6.94032 0.438851C7.22162 0.157547 7.60315 -0.000488281 8.00098 -0.000488281C8.3988 -0.000488281 8.78033 0.157547 9.06164 0.438851C9.34294 0.720156 9.50098 1.10169 9.50098 1.49951V10.7475C9.50098 11.079 9.63267 11.397 9.86709 11.6314C10.1015 11.8658 10.4195 11.9975 10.751 11.9975C11.0825 11.9975 11.4004 11.8658 11.6349 11.6314C11.8693 11.397 12.001 11.079 12.001 10.7475V1.75951C12.0052 1.30666 12.1838 0.872851 12.4996 0.548305C12.8155 0.223758 13.2443 0.033453 13.6968 0.0169678C14.1494 0.000482533 14.5909 0.159086 14.9295 0.459793C15.2682 0.760499 15.4778 1.18016 15.515 1.63151C15.601 2.85551 16.001 8.73951 16.001 11.9995C16.001 14.6995 14.661 17.0875 12.617 18.5335C12.185 18.8395 12.081 19.1635 12.091 19.3275C12.337 23.0835 13.001 33.3635 13.001 34.9935C13.001 36.3196 12.4742 37.5914 11.5365 38.529C10.5988 39.4667 9.32706 39.9935 8.00098 39.9935C6.67489 39.9935 5.40312 39.4667 4.46544 38.529C3.52776 37.5914 3.00098 36.3196 3.00098 34.9935C3.00098 33.3615 3.66498 23.0835 3.91098 19.3275C3.92098 19.1635 3.81698 18.8395 3.38498 18.5335C2.33919 17.7947 1.48602 16.8157 0.897164 15.6787C0.308307 14.5417 0.000969067 13.2799 0.000976563 11.9995C0.000976563 8.73951 0.400977 2.85551 0.486977 1.63151ZM19.001 11.4995C19.001 8.44952 20.2126 5.52445 22.3692 3.36778C24.5259 1.21112 27.451 -0.000488281 30.501 -0.000488281C30.8988 -0.000488281 31.2803 0.157547 31.5616 0.438851C31.8429 0.720156 32.001 1.10169 32.001 1.49951V18.4995C32.001 19.1355 32.213 22.2895 32.451 25.7835L32.461 25.9495C32.721 29.7655 33.001 33.9155 33.001 34.9935C33.001 36.3196 32.4742 37.5914 31.5365 38.529C30.5988 39.4667 29.3271 39.9935 28.001 39.9935C26.6749 39.9935 25.4031 39.4667 24.4654 38.529C23.5278 37.5914 23.001 36.3196 23.001 34.9935C23.001 33.9655 23.257 29.7715 23.505 25.9255C23.629 23.9835 23.755 22.1015 23.849 20.7055L23.895 19.9995H22.501C22.0414 19.9995 21.5862 19.909 21.1616 19.7331C20.7369 19.5572 20.3511 19.2994 20.0261 18.9744C19.7011 18.6494 19.4433 18.2635 19.2674 17.8389C19.0915 17.4143 19.001 16.9591 19.001 16.4995V11.4995Z" fill="white"/>
</svg>
