<svg width="31" height="31" viewBox="0 0 31 31" fill="none" xmlns="http://www.w3.org/2000/svg">
<path fill-rule="evenodd" clip-rule="evenodd" d="M15.9775 2.8828C15.7417 2.64707 15.4219 2.51465 15.0885 2.51465C14.7551 2.51465 14.4353 2.64707 14.1995 2.8828L5.3977 11.6846L2.88289 14.1994C2.7628 14.3154 2.66701 14.4542 2.60111 14.6076C2.53521 14.761 2.50052 14.926 2.49907 15.093C2.49762 15.2599 2.52943 15.4255 2.59266 15.58C2.65588 15.7345 2.74925 15.8749 2.86731 15.993C2.98537 16.1111 3.12576 16.2044 3.28029 16.2676C3.43482 16.3309 3.6004 16.3627 3.76735 16.3612C3.93431 16.3598 4.09931 16.3251 4.25272 16.2592C4.40613 16.1933 4.54487 16.0975 4.66086 15.9774L5.02928 15.609V23.8903C5.02928 24.8907 5.42671 25.8502 6.13414 26.5576C6.84157 27.265 7.80104 27.6625 8.8015 27.6625H21.3755C22.376 27.6625 23.3355 27.265 24.0429 26.5576C24.7503 25.8502 25.1478 24.8907 25.1478 23.8903V15.609L25.5162 15.9774C25.7533 16.2065 26.071 16.3332 26.4006 16.3303C26.7303 16.3275 27.0457 16.1952 27.2788 15.9621C27.512 15.729 27.6442 15.4136 27.6471 15.0839C27.6499 14.7542 27.5232 14.4366 27.2942 14.1994L15.9775 2.8828Z" fill="white"/>
</svg>
