<svg width="40" height="40" viewBox="0 0 40 40" fill="none" xmlns="http://www.w3.org/2000/svg">
<path fill-rule="evenodd" clip-rule="evenodd" d="M19.125 8.625V4.6875C19.125 3.90874 18.8941 3.14746 18.4614 2.49994C18.0288 1.85243 17.4138 1.34775 16.6943 1.04973C15.9748 0.751706 15.1831 0.67373 14.4193 0.82566C13.6555 0.977589 12.9539 1.3526 12.4033 1.90327C11.8526 2.45394 11.4776 3.15553 11.3257 3.91933C11.1737 4.68313 11.2517 5.47483 11.5497 6.19432C11.8477 6.9138 12.3524 7.52876 12.9999 7.96141C13.6475 8.39407 14.4087 8.625 15.1875 8.625H19.125ZM5.125 10.375C3.96468 10.375 2.85188 10.8359 2.03141 11.6564C1.21094 12.4769 0.750002 13.5897 0.750002 14.75C0.750002 15.9103 1.21094 17.0231 2.03141 17.8436C2.85188 18.6641 3.96468 19.125 5.125 19.125H14.75C15.9103 19.125 17.0231 18.6641 17.8436 17.8436C18.6641 17.0231 19.125 15.9103 19.125 14.75C19.125 13.5897 18.6641 12.4769 17.8436 11.6564C17.0231 10.8359 15.9103 10.375 14.75 10.375H5.125ZM25.25 20.875C24.0897 20.875 22.9769 21.3359 22.1564 22.1564C21.3359 22.9769 20.875 24.0897 20.875 25.25C20.875 26.4103 21.3359 27.5231 22.1564 28.3436C22.9769 29.1641 24.0897 29.625 25.25 29.625H34.875C36.0353 29.625 37.1481 29.1641 37.9686 28.3436C38.7891 27.5231 39.25 26.4103 39.25 25.25C39.25 24.0897 38.7891 22.9769 37.9686 22.1564C37.1481 21.3359 36.0353 20.875 34.875 20.875H25.25ZM20.875 31.375H24.8125C25.5913 31.375 26.3525 31.6059 27.0001 32.0386C27.6476 32.4713 28.1523 33.0862 28.4503 33.8057C28.7483 34.5252 28.8263 35.3169 28.6743 36.0807C28.5224 36.8445 28.1474 37.5461 27.5967 38.0967C27.0461 38.6474 26.3445 39.0224 25.5807 39.1743C24.8169 39.3263 24.0252 39.2483 23.3057 38.9503C22.5862 38.6523 21.9712 38.1476 21.5386 37.5001C21.1059 36.8525 20.875 36.0913 20.875 35.3125V31.375ZM31.375 19.125H35.3125C36.0913 19.125 36.8525 18.8941 37.5001 18.4614C38.1476 18.0288 38.6523 17.4138 38.9503 16.6943C39.2483 15.9748 39.3263 15.1831 39.1743 14.4193C39.0224 13.6555 38.6474 12.9539 38.0967 12.4033C37.5461 11.8526 36.8445 11.4776 36.0807 11.3257C35.3169 11.1737 34.5252 11.2517 33.8057 11.5497C33.0862 11.8477 32.4713 12.3524 32.0386 12.9999C31.6059 13.6475 31.375 14.4087 31.375 15.1875V19.125ZM4.6875 20.875H8.625V24.8125C8.625 25.5913 8.39407 26.3525 7.96141 27.0001C7.52876 27.6476 6.9138 28.1523 6.19432 28.4503C5.47483 28.7483 4.68313 28.8263 3.91933 28.6743C3.15553 28.5224 2.45394 28.1474 1.90327 27.5967C1.3526 27.0461 0.977589 26.3445 0.82566 25.5807C0.67373 24.8169 0.751706 24.0252 1.04973 23.3057C1.34775 22.5862 1.85243 21.9712 2.49994 21.5386C3.14746 21.1059 3.90874 20.875 4.6875 20.875ZM29.625 14.75V5.125C29.625 3.96468 29.1641 2.85188 28.3436 2.03141C27.5231 1.21094 26.4103 0.750002 25.25 0.750002C24.0897 0.750002 22.9769 1.21094 22.1564 2.03141C21.3359 2.85188 20.875 3.96468 20.875 5.125V14.75C20.875 15.9103 21.3359 17.0231 22.1564 17.8436C22.9769 18.6641 24.0897 19.125 25.25 19.125C26.4103 19.125 27.5231 18.6641 28.3436 17.8436C29.1641 17.0231 29.625 15.9103 29.625 14.75ZM19.125 25.25V34.875C19.125 36.0353 18.6641 37.1481 17.8436 37.9686C17.0231 38.7891 15.9103 39.25 14.75 39.25C13.5897 39.25 12.4769 38.7891 11.6564 37.9686C10.8359 37.1481 10.375 36.0353 10.375 34.875V25.25C10.375 24.0897 10.8359 22.9769 11.6564 22.1564C12.4769 21.3359 13.5897 20.875 14.75 20.875C15.9103 20.875 17.0231 21.3359 17.8436 22.1564C18.6641 22.9769 19.125 24.0897 19.125 25.25Z" fill="white"/>
</svg>
