<svg width="41" height="41" viewBox="0 0 41 41" fill="none" xmlns="http://www.w3.org/2000/svg">
<path fill-rule="evenodd" clip-rule="evenodd" d="M11.6667 9.45833C11.6667 7.11559 12.5973 4.86879 14.2539 3.21222C15.9105 1.55565 18.1573 0.625 20.5 0.625C22.8427 0.625 25.0895 1.55565 26.7461 3.21222C28.4027 4.86879 29.3333 7.11559 29.3333 9.45833C29.3333 11.8011 28.4027 14.0479 26.7461 15.7044C25.0895 17.361 22.8427 18.2917 20.5 18.2917C18.1573 18.2917 15.9105 17.361 14.2539 15.7044C12.5973 14.0479 11.6667 11.8011 11.6667 9.45833ZM11.6667 22.7083C8.73823 22.7083 5.92974 23.8716 3.85903 25.9424C1.78832 28.0131 0.625 30.8216 0.625 33.75C0.625 35.5071 1.32299 37.1922 2.56542 38.4346C3.80785 39.677 5.49294 40.375 7.25 40.375H33.75C35.5071 40.375 37.1922 39.677 38.4346 38.4346C39.677 37.1922 40.375 35.5071 40.375 33.75C40.375 30.8216 39.2117 28.0131 37.141 25.9424C35.0703 23.8716 32.2618 22.7083 29.3333 22.7083H11.6667Z" fill="white"/>
</svg>
