<svg width="58" height="39" viewBox="0 0 58 39" fill="none" xmlns="http://www.w3.org/2000/svg">
<path d="M54.0554 35.6244V28.521H55.1268L56.1225 27.5366L44.3259 15.74H42.8614V17.7845H39.4298L37.3853 15.74H31.7206L19.9369 27.5237L20.9326 28.5194H22.5099V35.6227H19.431C14.8265 31.218 13.602 21.2275 14.0322 13.7954L14.1079 13.644H14.145C16.1589 13.644 17.944 14.6203 19.0556 16.1251L19.0669 16.1412C19.9047 17.2738 20.409 18.6996 20.409 20.2415C20.409 21.3048 20.1705 22.3117 19.742 23.2123L19.7597 23.1705C20.6589 22.9403 21.4947 22.5108 22.2054 21.9138L22.1957 21.9219C22.936 21.278 23.5293 20.4826 23.9354 19.5895C24.3415 18.6964 24.5509 17.7265 24.5495 16.7453C24.5495 15.2067 24.0436 13.7874 23.1898 12.6435L23.2026 12.6612C22.47 11.6395 21.4338 10.8748 20.2416 10.476C19.0493 10.0771 17.7616 10.0643 16.5616 10.4395L16.6035 10.4282C17.0305 10.1624 17.5219 9.92713 18.039 9.74829L18.0906 9.73218C18.7936 9.47286 19.5373 9.34136 20.2865 9.34391C22.0314 9.34391 23.6119 10.0415 24.767 11.1709L24.7654 11.1693C24.9376 10.2657 24.8862 9.33371 24.6156 8.45457L24.6269 8.49485C24.3597 7.71123 23.9359 6.9902 23.3811 6.37567C22.8263 5.76114 22.1522 5.26598 21.3999 4.92036C20.6476 4.57473 19.8328 4.38586 19.0052 4.36527C18.1775 4.34468 17.3544 4.49278 16.5858 4.80057L16.6261 4.78607C16.2372 4.91969 15.8591 5.08289 15.4951 5.27424L15.5418 5.25168C15.4315 4.74798 15.269 4.25715 15.0569 3.78718L15.0762 3.83391C13.6584 0.655183 10.4072 -0.846373 7.80848 0.466683C7.10708 0.826065 6.5042 1.35151 6.05237 1.99724L6.0427 2.01335C6.95747 2.10261 7.8387 2.40446 8.61608 2.89483C9.39345 3.3852 10.0454 4.0505 10.52 4.83763L10.5345 4.86341C9.93192 4.56085 9.29376 4.33514 8.63498 4.19157L8.5802 4.1819C4.58464 3.32318 0.782421 5.49335 0.100921 9.03941C-0.0811724 10.0122 -0.0208589 11.0148 0.276532 11.9587L0.265254 11.9168C1.15837 10.9021 2.31469 10.154 3.6064 9.75542C4.8981 9.35679 6.27488 9.3231 7.58453 9.65807L7.53298 9.64679C8.19192 9.78535 8.77514 9.98513 9.32131 10.2477L9.27459 10.2268C7.96738 10.0518 6.63769 10.2711 5.45594 10.8567C4.27419 11.4422 3.29423 12.3674 2.64164 13.5135L2.62392 13.5457C1.94263 14.695 1.58469 16.007 1.58798 17.3431C1.58798 19.8693 2.83981 22.1023 4.75864 23.4556L4.78281 23.4717C5.60773 24.0276 6.55013 24.3849 7.5362 24.5157L7.57003 24.519C6.85959 23.341 6.48569 21.9908 6.48898 20.6152C6.48898 19.2087 6.87081 17.8908 7.53781 16.7615L7.51848 16.7969C8.01364 15.9341 8.69296 15.1911 9.50805 14.6208C10.3231 14.0505 11.2539 13.6669 12.2342 13.4973L12.2745 13.4909C9.99153 23.8874 9.35998 31.131 11.2434 35.6211H5.75592V38.65H57.5499V35.6211H54.0554V35.6244ZM41.2471 28.6853H52.7923V35.6244H41.2471V28.6853ZM23.7488 27.3094L31.7238 19.3344L39.6988 27.3094V35.6244H30.9424V29.3668H26.5135V35.6244H23.7391V27.3094H23.7488Z" fill="white"/>
</svg>
